<?xml version="1.0" encoding="UTF-8" standalone="no"?>
<svg
   xmlns:dc="http://purl.org/dc/elements/1.1/"
   xmlns:cc="http://creativecommons.org/ns#"
   xmlns:rdf="http://www.w3.org/1999/02/22-rdf-syntax-ns#"
   xmlns:svg="http://www.w3.org/2000/svg"
   xmlns="http://www.w3.org/2000/svg"
   viewBox="0 0 3466.6667 2666.6667"
   height="2666.6667"
   width="3466.6667"
   xml:space="preserve"
   id="svg2"
   version="1.1"><metadata
     id="metadata8"><rdf:RDF><cc:Work
         rdf:about=""><dc:format>image/svg+xml</dc:format><dc:type
           rdf:resource="http://purl.org/dc/dcmitype/StillImage" /></cc:Work></rdf:RDF></metadata><defs
     id="defs6" /><g
     transform="matrix(1.3333333,0,0,-1.3333333,0,2666.6667)"
     id="g10"><g
       transform="scale(0.1)"
       id="g12"><g
         transform="scale(1.59509)"
         id="g14"><path
           id="path16"
           style="fill:#ffffff;fill-opacity:1;fill-rule:nonzero;stroke:none"
           d="M 16300,0 H 0 V 12538.5 H 16300 V 0" /></g><path
         id="path18"
         style="fill:#050100;fill-opacity:1;fill-rule:nonzero;stroke:none"
         d="m 10054.5,7262.3 v -355.5 c 0,-133.9 108.5,-242.4 242.4,-242.4 h 2649.9 c 133.9,0 242.4,108.5 242.4,242.4 v 355.5 h -3134.7" /><path
         id="path20"
         style="fill:#050100;fill-opacity:1;fill-rule:nonzero;stroke:none"
         d="m 13750.8,5301.4 -771.7,643.1 v 719.9 h -2682.2 v -719.9 l -798.38,-665.3 c -214.87,-179 -277.72,-429.8 -163.62,-652.9 l 962,-1880.3 h 2682.2 l 947.8,1852.6 c 122.9,240.1 55.2,510.1 -176.1,702.8" /><path
         id="path22"
         style="fill:#4f4d4d;fill-opacity:1;fill-rule:nonzero;stroke:none"
         d="m 13189.2,7253.9 c 0,-98.2 -701.7,-177.8 -1567.3,-177.8 -865.7,0 -1567.4,79.6 -1567.4,177.8 0,98.1 701.7,177.7 1567.4,177.7 865.6,0 1567.3,-79.6 1567.3,-177.7" /><path
         id="path24"
         style="fill:#000000;fill-opacity:1;fill-rule:nonzero;stroke:none"
         d="m 12199.5,8118 c 109,332.6 226.9,682.1 351.8,1042.5 125.2,360.2 259.2,730.6 400.1,1105.1 35.6,93.5 71.4,187.3 107.2,281.4 36.8,93.8 73.7,187.8 110.6,282 36.6,94.4 75.2,188.1 113.3,282.1 38.2,94 75.9,188.4 115.7,281.8 39.3,93.6 78.6,187.2 117.9,280.8 40.4,93 80.8,186 121.1,278.7 39.7,93.1 82.1,184.6 123.1,276.5 41.3,91.8 82,183.5 124.7,273.8 42.1,90.6 84.2,180.8 126,270.6 43,89.1 85.8,177.9 128.4,266.1 21.4,44 42.3,88.1 63.9,131.7 21.8,43.5 43.5,86.8 65.1,130 43.4,86.3 -232.9,-150.4 -255.7,-194 -45.4,-87.2 -91.1,-175 -137.1,-263.2 -44.7,-88.9 -89.7,-178.2 -134.8,-267.8 -45.7,-89.5 -89.4,-180.3 -133.7,-271.2 -44,-91.1 -89.4,-181.9 -132.2,-274.1 -43.3,-92 -86.7,-184.2 -130.1,-276.4 -42.4,-92.8 -84.8,-185.7 -127.2,-278.6 -42.9,-92.7 -83.6,-186.4 -124.9,-279.7 -41.2,-93.3 -82.9,-186.4 -122.5,-280.2 -40.1,-93.5 -80,-186.9 -119.8,-280 -39,-93.5 -77.8,-186.8 -116.5,-279.6 -153.1,-372.1 -299.1,-740.4 -435.9,-1098.4 -136.4,-358.1 -265.4,-705.5 -384.9,-1035.6 -119.6,-330.2 -231,-642.9 -332.7,-931.7 -25,-71.4 -49.6,-141.2 -73.6,-209.5 -170.1,-484.4 -312.7,-890.4 -416.3,-1185.5 -119.1,-336.2 -187.2,-528.3 -187.2,-528.3 l 629.6,670.2 c 0,0 138.6,434.6 298.4,937.7 21.3,67 43,135.2 64.8,203.8 92.7,291.4 194.3,606.5 303.4,939" /><path
         id="path26"
         style="fill:#ffffff;fill-opacity:1;fill-rule:nonzero;stroke:none"
         d="m 14048.3,13147.4 c -8,-15.5 -16,-30.9 -24.1,-46.3 l -137.1,-263.2 -134.8,-267.7 c -37.3,-73.1 -74,-148.6 -109.5,-221.6 l -24.1,-49.4 c -13.8,-28.7 -27.9,-57.4 -41.9,-86.2 -29.9,-61.3 -60.9,-124.6 -90.1,-187.7 l -130.2,-276.5 -127.1,-278.4 c -33.3,-72 -65.8,-145.7 -97.3,-217 -9.2,-20.8 -18.4,-41.7 -27.6,-62.5 l -24.1,-54.5 c -32.6,-73.8 -66.4,-150.1 -98.3,-225.5 l -119.8,-280.1 -116.4,-279.5 c -150.9,-366.8 -297.5,-736.3 -435.8,-1098 -134.5,-353.1 -264,-701.5 -384.9,-1035.5 -111.2,-307.2 -223.1,-620.6 -332.5,-931.5 l -490,-1395 -166.6,-470.1 585.4,623 c 12,37.9 145.1,455.3 297.5,934.9 l 64.7,203.8 c 99.7,313.4 201.8,629.3 303.5,939.2 110.2,336.2 228.6,687 351.8,1042.6 126.6,364 261.2,735.9 400.2,1105.5 l 107.3,281.4 110.7,282.1 c 29.4,76 60.7,152.9 90.9,227.2 l 22.4,55.1 c 8.6,21.2 17.2,42.3 25.7,63.5 29.1,71.8 59.2,146 90,218.5 l 118,280.7 121.1,278.9 c 27.1,63.5 55.9,127.4 83.8,189.2 13.2,29.1 26.3,58.2 39.3,87.4 l 22.4,49.8 c 33.1,73.8 67.4,150.2 102.5,224.3 l 126,270.5 128.4,266.2 c 7.6,15.6 15.1,31.1 22.6,46.7 13.4,28 27.4,56.9 41.4,85.2 l 65.1,130 c 15.4,30.7 -194.2,-131.9 -208.5,-159.5 z m -3177.8,-7833.9 207.8,586.4 489.9,1395 c 109.5,310.9 221.4,624.4 332.7,931.8 120.9,334.1 250.5,682.6 385,1035.8 138.4,362 285,731.6 436,1098.7 l 116.5,279.6 119.9,280.2 c 31.9,75.6 65.7,152 98.4,225.9 l 24.1,54.4 c 9.2,20.9 18.4,41.8 27.6,62.6 31.5,71.4 64.1,145.2 97.4,217.3 l 127.2,278.5 130.2,276.6 c 29.3,63.2 60.3,126.7 90.3,188.1 14.1,28.7 28.1,57.4 41.9,86.1 l 24.1,49.5 c 35.5,73.1 72.3,148.6 109.7,222 l 134.9,267.7 137.1,263.4 c 8.1,15.4 351.9,328.4 324.7,274.1 -15.2,-30.6 -30.5,-61.2 -45.9,-91.9 l -65.1,-130 c -13.9,-28 -27.8,-56.9 -41.3,-84.9 -7.5,-15.5 -15,-31.1 -22.6,-46.7 l -128.3,-266 -126,-270.4 c -35,-74 -69.2,-150.2 -102.3,-223.9 l -22.3,-49.8 c -13,-29.2 -26.2,-58.3 -39.4,-87.5 -27.8,-61.7 -56.5,-125.4 -83.6,-188.8 l -121.1,-278.8 -117.9,-280.6 c -30.8,-72.4 -60.8,-146.5 -89.8,-218.1 -8.6,-21.2 -17.2,-42.4 -25.8,-63.5 l -22.4,-55.2 c -30.2,-74.2 -61.4,-151 -90.8,-226.8 l -110.6,-282 -107.2,-281.3 c -138.9,-369.3 -273.5,-741 -400,-1104.8 -123.2,-355.5 -241.5,-706.1 -351.7,-1042.2 -101.6,-309.8 -203.7,-625.7 -303.4,-938.9 l -64.7,-203.8 c -159.9,-503.2 -298.4,-937.8 -298.4,-937.8 l -0.9,-2.8 -673.9,-717.2" /><g
         transform="scale(1.13608)"
         id="g28"><path
           id="path30"
           style="fill:#000000;fill-opacity:1;fill-rule:nonzero;stroke:none"
           d="m 15293.1,13213.1 c 453.6,994.4 661.6,2044.4 611.5,3086.9 -806,-192.2 -1805.4,-919 -1724.8,-803.4 -2583.6,-1540.1 -3190,-3059.4 -3797.1,-4908.3 61.4,197.3 -79.7,392.3 -18.2,589.5 -457.03,-595.2 -404.92,-1273.19 31.3,-2045.09 -165.3,163.59 -533.13,415.01 -698.44,578.59 -260.72,-610.78 -67.16,-1361.64 177.01,-1973.21 -437.2,143.03 -765.43,442.83 -854.34,780.48 -8.18,-467.57 370.57,-926.34 946.68,-1146.74 -228.15,87.31 -604.89,78.07 -700.39,-133.18 300.77,61.79 428.05,19.72 654.35,-103.95 86.93,-47.45 235.63,-288.81 323.33,-324.98 21.6,58.62 43.8,118.48 66.4,179.65 91.8,247.69 192.9,515.9 301.9,799.24 108.8,283.43 227.4,581.73 353.7,889.72 126.9,307.83 263.6,624.88 408.4,945.73 36.7,80.1 73.6,160.51 110.6,241.17 38.1,80.41 76.3,161.07 114.6,241.87 37.9,80.9 78.1,161.4 117.8,242.1 39.8,80.7 79,161.6 120.7,241.9 41.2,80.5 82.4,160.9 123.6,241.2 42.5,80 85.1,159.9 127.5,239.7 41.7,79.9 86.7,158.8 130,237.8 43.7,78.9 86.7,157.8 132.2,235.6 44.8,78 89.5,155.6 134,232.9 45.9,76.8 91.6,153.3 137.1,229.3 22.9,37.9 45.1,75.9 68.3,113.4 23.3,37.5 46.6,74.9 69.8,112.2 46.6,74.4 92,148.5 138.6,221.6 47.2,72.8 94.1,145 140.3,216.6 23.5,35.7 46,71.5 69.7,106.6 23.7,35.2 47.2,70.2 70.7,105 47,69.6 93.3,138.4 139.2,206.4 47.3,67.5 94,134.2 140.1,200 91,131.9 184.8,258.4 274,381.2 22.4,30.6 44.6,61.1 66.6,91.2 22.6,29.9 45.1,59.6 67.2,88.9 44.6,58.8 88.2,116.4 130.9,172.8 21.4,28.2 42.6,56.1 63.6,83.7 21.5,27.4 42.8,54.5 63.9,81.2 42.1,53.6 83.2,105.9 123.3,156.8 79.2,102.4 158.7,197.7 231.9,287.9 36.8,45 72.4,88.5 106.7,130.6 17,21.1 34.3,41.6 51.3,61.6 17,20.1 33.8,39.8 50,59.1 65.4,77.1 125.5,148 179.7,212 13.5,16 26.7,31.6 39.5,46.7 13.2,15 26,29.6 38.4,43.7 24.7,28.2 48,54.7 69.6,79.3 43.2,49.2 80,91.1 109.8,125 59.6,67.9 91.4,104.1 91.4,104.1 0,0 -30.2,-36.9 -86.8,-106 -28.3,-34.6 -63.2,-77.3 -104.3,-127.4 -20.5,-25.1 -42.6,-52 -66.1,-80.8 -11.8,-14.3 -23.9,-29.2 -36.3,-44.4 -12.3,-15.4 -24.8,-31.3 -37.6,-47.6 -51.3,-65.1 -108.2,-137.2 -170.1,-215.7 -15.5,-19.6 -31.3,-39.6 -47.4,-60.1 -16.2,-20.3 -32.5,-41.2 -48.5,-62.6 -32.5,-42.8 -66.1,-87.1 -100.8,-132.8 -69.3,-91.6 -144.4,-188.5 -219,-292.3 -37.8,-51.8 -76.5,-104.9 -116.2,-159.2 -19.9,-27.1 -39.9,-54.6 -60.2,-82.4 -19.7,-28 -39.6,-56.3 -59.7,-84.9 -40.2,-57.2 -81.2,-115.6 -122.9,-175.1 -20.9,-29.8 -42,-59.9 -63.2,-90.2 -20.6,-30.5 -41.4,-61.3 -62.4,-92.4 -83.7,-124.4 -171.6,-252.4 -256.5,-385.9 -43.1,-66.5 -86.6,-133.9 -130.8,-202.2 -42.7,-68.7 -85.9,-138.2 -129.6,-208.6 -21.9,-35.1 -43.8,-70.5 -65.9,-106 -22,-35.5 -42.9,-71.6 -64.6,-107.7 -43.1,-72.2 -86.5,-145.1 -130.3,-218.6 -43.2,-73.7 -85.1,-148.5 -128.3,-223.5 -21.3,-37.5 -42.9,-75.2 -64.5,-113 -21.5,-37.9 -41.9,-76.2 -63,-114.4 -41.9,-76.5 -84.1,-153.5 -126.4,-230.9 -40.8,-77.8 -81.9,-156 -123.1,-234.5 -41.8,-78.3 -81,-157.6 -121.1,-237 -39.6,-79.5 -80.9,-158.8 -118.8,-239.1 -38.6,-80.2 -77.5,-160.5 -116.2,-240.9 -37.4,-80.7 -74.8,-161.5 -112.3,-242.3 -37.9,-80.6 -73.3,-161.9 -109.4,-242.9 -35.9,-81 -72.4,-161.8 -106.4,-243 -34.5,-81.09 -69,-162.01 -103.4,-242.69 -33.2,-80.92 -66.3,-161.59 -99.3,-241.95 -130,-321.86 -252,-639.77 -364.7,-948.56 -112.2,-308.87 -217,-608.15 -313.1,-892.63 -96.1,-284.57 -185.1,-553.92 -265.9,-803.02 -19,-58.63 -37.9,-116.9 -56.4,-174.2 500.8,2.29 1115.4,192.94 1560.9,271.28 -179.8,145.86 -452.3,199.29 -725.6,194.8 317.4,104.65 718.8,139.51 1037.1,39.61 -158.2,177.62 -495.7,273.39 -788.6,235.54 563,83.89 1019.1,68.84 1390.3,313.71 -257.1,-50.26 -514.3,-100.43 -771.4,-150.69 769.7,176.83 1360.5,701.36 1435.8,1274.55 -302.8,-130.27 -605.6,-260.63 -908.3,-390.9 796.5,768.33 1373.3,1651.45 1684.5,2578.95 -136.8,-73.1 -273.6,-146.2 -410.3,-219.3 498.8,451.2 691.7,712.3 963,1113.9 273.7,405 601.3,1017.7 775.2,1492 -176,-156.9 -431,-254.2 -595,-288.1" /></g><path
         id="path32"
         style="fill:#050100;fill-opacity:1;fill-rule:nonzero;stroke:none"
         d="m 13750.8,5304.2 -771.7,643 v 720 h -2682.2 v -720 L 9498.52,5282 C 9283.65,5102.9 9220.8,4852.1 9334.9,4629.1 l 962,-1880.3 h 2682.2 l 947.8,1852.6 c 122.9,240.1 55.2,510.1 -176.1,702.8" /><path
         id="path34"
         style="fill:#050100;fill-opacity:1;fill-rule:nonzero;stroke:none"
         d="m 13186,7265 c 2.1,-3.7 3.2,-7.4 3.2,-11.1 v 11.1 h -3.2" /><path
         id="path36"
         style="fill:#050100;fill-opacity:1;fill-rule:nonzero;stroke:none"
         d="m 10054.5,7265 v -11.1 c 0,3.7 1.1,7.4 3.2,11.1 h -3.2" /><path
         id="path38"
         style="fill:#050100;fill-opacity:1;fill-rule:nonzero;stroke:none"
         d="m 11621.9,7076.1 c -865.7,0 -1567.4,79.6 -1567.4,177.8 v -344.4 c 0,-133.8 108.5,-242.3 242.4,-242.3 h 2649.9 c 133.9,0 242.4,108.5 242.4,242.3 v 344.4 c 0,-98.2 -701.7,-177.8 -1567.3,-177.8" /></g></g></svg>