<?xml version="1.0" standalone="no"?>
<!DOCTYPE svg PUBLIC "-//W3C//DTD SVG 20010904//EN"
 "http://www.w3.org/TR/2001/REC-SVG-20010904/DTD/svg10.dtd">
<svg version="1.0" xmlns="http://www.w3.org/2000/svg"
 width="5000.000000pt" height="5000.000000pt" viewBox="0 0 5000.000000 5000.000000"
 preserveAspectRatio="xMidYMid meet">
<metadata>
Created by potrace 1.16, written by Peter Selinger 2001-2019
</metadata>
<g transform="translate(0.000000,5000.000000) scale(0.100000,-0.100000)"
fill="#000000" stroke="none">
<path d="M21590 36660 l-7945 -5 -67 -32 c-111 -52 -195 -152 -227 -268 -16
-57 -16 -22653 0 -22710 32 -116 116 -216 227 -268 l67 -32 8000 -3 c7274 -2
8005 -1 8055 14 140 40 246 152 285 301 13 51 15 1359 15 11343 0 9984 -2
11292 -15 11343 -49 188 -197 308 -395 319 -30 2 -3630 1 -8000 -2z m7575
-11655 l0 -10830 -7500 0 -7500 0 0 10825 0 10825 7485 5 c4117 3 7492 5 7500
5 13 0 15 -1210 15 -10830z"/>
<path d="M16986 33333 c-1 -1 -50 -7 -110 -13 -59 -6 -151 -20 -203 -30 -52
-11 -99 -18 -103 -15 -5 3 -10 2 -12 -2 -1 -5 -61 -27 -133 -51 -71 -24 -191
-73 -265 -110 -74 -37 -139 -65 -145 -64 -5 2 -7 0 -3 -4 10 -9 -94 -74 -107
-67 -5 4 -7 3 -3 -1 8 -9 -140 -122 -153 -119 -5 2 -8 -1 -6 -5 1 -4 -27 -35
-62 -67 -156 -144 -303 -326 -393 -485 -25 -44 -49 -76 -53 -72 -5 4 -5 2 -1
-5 9 -15 -24 -84 -37 -76 -6 3 -7 1 -4 -5 4 -5 -6 -39 -22 -75 -62 -139 -151
-468 -151 -561 0 -14 -4 -26 -10 -26 -13 0 -12 -14510 1 -14600 36 -249 80
-420 150 -589 45 -108 126 -263 172 -330 17 -24 30 -50 30 -58 0 -7 2 -11 5
-9 2 3 24 -21 48 -53 273 -364 659 -631 1089 -755 63 -18 113 -35 111 -37 -2
-2 10 -4 27 -5 18 0 79 -9 137 -19 102 -19 232 -19 4820 -22 3017 -2 4754 1
4823 7 713 65 1337 478 1667 1103 26 48 50 84 55 80 4 -5 5 -3 2 3 -8 15 58
176 68 166 5 -4 6 -2 2 3 -3 6 7 53 23 105 36 123 66 270 79 392 8 69 11 2274
11 7313 0 6402 -2 7228 -15 7332 -30 228 -96 452 -191 647 -24 49 -40 94 -37
100 3 6 3 8 -2 4 -4 -4 -30 29 -58 75 -173 283 -420 528 -707 701 -52 32 -133
76 -180 98 -110 52 -349 132 -468 156 -51 10 -89 22 -85 27 5 4 2 5 -5 1 -7
-4 -63 -2 -125 4 -80 8 -1436 11 -4790 13 -2573 1 -4680 1 -4681 0z m9517
-856 c258 -64 454 -173 628 -346 173 -174 281 -370 346 -628 16 -64 18 -506
20 -7288 3 -6376 2 -7231 -11 -7316 -89 -565 -546 -999 -1116 -1060 -63 -6
-1673 -9 -4770 -7 -4459 3 -4678 4 -4750 21 -273 66 -466 171 -646 351 -180
180 -285 373 -351 646 -17 72 -18 380 -21 7250 -2 5253 0 7202 8 7274 55 487
375 893 830 1054 76 27 193 54 275 65 17 2 2159 3 4760 3 4430 -2 4734 -3
4798 -19z"/>
<path d="M17000 29989 c-118 -23 -230 -110 -286 -223 -105 -214 -16 -459 206
-565 l55 -26 4670 -3 c4238 -2 4675 -1 4725 14 112 32 200 109 254 223 29 62
31 73 31 176 0 104 -2 114 -32 175 -57 117 -166 202 -291 229 -65 14 -9261 14
-9332 0z"/>
<path d="M33627 36646 c-58 -17 -130 -62 -178 -113 -48 -49 -1074 -1591 -1163
-1748 -275 -479 -462 -992 -550 -1505 -55 -318 -59 -377 -65 -1015 l-6 -600
-265 -5 -265 -5 -57 -28 c-84 -41 -162 -116 -199 -192 -89 -181 -31 -419 128
-524 101 -67 133 -73 408 -80 l250 -6 6 -1985 5 -1985 416 -6601 415 -6602 35
-73 c43 -91 109 -158 197 -202 l66 -32 919 -3 c1013 -3 977 -5 1078 59 104 67
168 167 188 294 6 39 198 3059 426 6712 l414 6643 0 1890 0 1890 203 0 c111 1
232 5 269 9 219 29 368 210 356 436 -8 152 -96 282 -236 348 l-67 32 -262 3
-263 3 0 513 c0 654 -13 833 -90 1216 -97 481 -266 932 -513 1370 -39 69 -317
494 -618 946 -408 613 -558 830 -591 857 -78 64 -150 91 -253 94 -54 1 -109
-3 -138 -11z m161 -1207 c18 -27 30 -55 26 -61 -4 -6 -3 -8 3 -5 13 8 466
-670 457 -685 -4 -6 -3 -8 3 -5 11 7 126 -162 215 -313 73 -124 169 -320 163
-330 -3 -6 -2 -10 3 -10 14 0 84 -168 76 -182 -4 -6 -3 -8 3 -5 21 13 144
-389 194 -632 56 -270 62 -358 66 -973 l5 -578 -1251 0 -1251 0 0 508 c0 478
6 645 31 822 16 120 61 350 68 350 3 0 7 17 8 37 1 20 5 39 10 42 4 3 9 21 11
40 4 57 116 377 187 539 95 215 309 594 327 577 2 -3 5 1 5 8 0 14 593 907
602 907 3 0 21 -23 39 -51z m1212 -6274 l0 -1665 -1250 0 -1250 0 0 1665 0
1665 1250 0 1250 0 0 -1665z m-33 -2511 c5 -15 -762 -12380 -773 -12451 l-5
-33 -439 0 -440 0 -4 23 c-5 26 -777 12396 -776 12445 l0 32 1215 0 c1102 0
1216 -1 1222 -16z"/>
</g>
</svg>
